<mxfile host="app.diagrams.net" agent="Mozilla/5.0 (Windows NT 10.0; Win64; x64) AppleWebKit/537.36 (KHTML, like Gecko) Chrome/134.0.0.0 Safari/537.36" version="26.1.2">
  <diagram name="Page-1" id="mFx-cl9HFu_9yTYbfSzq">
    <mxGraphModel dx="2333" dy="2260" grid="1" gridSize="10" guides="1" tooltips="1" connect="1" arrows="1" fold="1" page="1" pageScale="1" pageWidth="850" pageHeight="1100" math="0" shadow="0">
      <root>
        <mxCell id="0" />
        <mxCell id="1" parent="0" />
        <mxCell id="ZrU4YzZ6mLLpQFoTN3Rc-1" value="Users_Table" style="swimlane;fontStyle=0;childLayout=stackLayout;horizontal=1;startSize=30;horizontalStack=0;resizeParent=1;resizeParentMax=0;resizeLast=0;collapsible=1;marginBottom=0;whiteSpace=wrap;html=1;" vertex="1" parent="1">
          <mxGeometry x="110" y="190" width="140" height="240" as="geometry">
            <mxRectangle x="50" y="120" width="70" height="30" as="alternateBounds" />
          </mxGeometry>
        </mxCell>
        <mxCell id="ZrU4YzZ6mLLpQFoTN3Rc-2" value="int | user_id&lt;span style=&quot;white-space: pre;&quot;&gt;&#x9;&lt;/span&gt;&lt;span style=&quot;white-space: pre;&quot;&gt;&#x9;&lt;/span&gt;PK" style="text;strokeColor=none;fillColor=none;align=left;verticalAlign=middle;spacingLeft=4;spacingRight=4;overflow=hidden;points=[[0,0.5],[1,0.5]];portConstraint=eastwest;rotatable=0;whiteSpace=wrap;html=1;" vertex="1" parent="ZrU4YzZ6mLLpQFoTN3Rc-1">
          <mxGeometry y="30" width="140" height="30" as="geometry" />
        </mxCell>
        <mxCell id="ZrU4YzZ6mLLpQFoTN3Rc-3" value="string | fname" style="text;strokeColor=none;fillColor=none;align=left;verticalAlign=middle;spacingLeft=4;spacingRight=4;overflow=hidden;points=[[0,0.5],[1,0.5]];portConstraint=eastwest;rotatable=0;whiteSpace=wrap;html=1;" vertex="1" parent="ZrU4YzZ6mLLpQFoTN3Rc-1">
          <mxGeometry y="60" width="140" height="30" as="geometry" />
        </mxCell>
        <mxCell id="ZrU4YzZ6mLLpQFoTN3Rc-4" value="string | lname" style="text;strokeColor=none;fillColor=none;align=left;verticalAlign=middle;spacingLeft=4;spacingRight=4;overflow=hidden;points=[[0,0.5],[1,0.5]];portConstraint=eastwest;rotatable=0;whiteSpace=wrap;html=1;" vertex="1" parent="ZrU4YzZ6mLLpQFoTN3Rc-1">
          <mxGeometry y="90" width="140" height="30" as="geometry" />
        </mxCell>
        <mxCell id="ZrU4YzZ6mLLpQFoTN3Rc-8" value="string | address" style="text;strokeColor=none;fillColor=none;align=left;verticalAlign=middle;spacingLeft=4;spacingRight=4;overflow=hidden;points=[[0,0.5],[1,0.5]];portConstraint=eastwest;rotatable=0;whiteSpace=wrap;html=1;" vertex="1" parent="ZrU4YzZ6mLLpQFoTN3Rc-1">
          <mxGeometry y="120" width="140" height="30" as="geometry" />
        </mxCell>
        <mxCell id="ZrU4YzZ6mLLpQFoTN3Rc-12" value="string | email" style="text;strokeColor=none;fillColor=none;align=left;verticalAlign=middle;spacingLeft=4;spacingRight=4;overflow=hidden;points=[[0,0.5],[1,0.5]];portConstraint=eastwest;rotatable=0;whiteSpace=wrap;html=1;" vertex="1" parent="ZrU4YzZ6mLLpQFoTN3Rc-1">
          <mxGeometry y="150" width="140" height="30" as="geometry" />
        </mxCell>
        <mxCell id="ZrU4YzZ6mLLpQFoTN3Rc-23" value="string | password(hash)" style="text;strokeColor=none;fillColor=none;align=left;verticalAlign=middle;spacingLeft=4;spacingRight=4;overflow=hidden;points=[[0,0.5],[1,0.5]];portConstraint=eastwest;rotatable=0;whiteSpace=wrap;html=1;" vertex="1" parent="ZrU4YzZ6mLLpQFoTN3Rc-1">
          <mxGeometry y="180" width="140" height="30" as="geometry" />
        </mxCell>
        <mxCell id="ZrU4YzZ6mLLpQFoTN3Rc-11" value="datetime | birthdate" style="text;strokeColor=none;fillColor=none;align=left;verticalAlign=middle;spacingLeft=4;spacingRight=4;overflow=hidden;points=[[0,0.5],[1,0.5]];portConstraint=eastwest;rotatable=0;whiteSpace=wrap;html=1;" vertex="1" parent="ZrU4YzZ6mLLpQFoTN3Rc-1">
          <mxGeometry y="210" width="140" height="30" as="geometry" />
        </mxCell>
        <mxCell id="ZrU4YzZ6mLLpQFoTN3Rc-13" value="Product_Table" style="swimlane;fontStyle=0;childLayout=stackLayout;horizontal=1;startSize=30;horizontalStack=0;resizeParent=1;resizeParentMax=0;resizeLast=0;collapsible=1;marginBottom=0;whiteSpace=wrap;html=1;" vertex="1" parent="1">
          <mxGeometry x="110" y="510" width="140" height="210" as="geometry">
            <mxRectangle x="50" y="120" width="70" height="30" as="alternateBounds" />
          </mxGeometry>
        </mxCell>
        <mxCell id="ZrU4YzZ6mLLpQFoTN3Rc-14" value="int | product_id&lt;span style=&quot;white-space: pre;&quot;&gt;&#x9;&lt;/span&gt;PK" style="text;strokeColor=none;fillColor=none;align=left;verticalAlign=middle;spacingLeft=4;spacingRight=4;overflow=hidden;points=[[0,0.5],[1,0.5]];portConstraint=eastwest;rotatable=0;whiteSpace=wrap;html=1;" vertex="1" parent="ZrU4YzZ6mLLpQFoTN3Rc-13">
          <mxGeometry y="30" width="140" height="30" as="geometry" />
        </mxCell>
        <mxCell id="ZrU4YzZ6mLLpQFoTN3Rc-15" value="string | name" style="text;strokeColor=none;fillColor=none;align=left;verticalAlign=middle;spacingLeft=4;spacingRight=4;overflow=hidden;points=[[0,0.5],[1,0.5]];portConstraint=eastwest;rotatable=0;whiteSpace=wrap;html=1;" vertex="1" parent="ZrU4YzZ6mLLpQFoTN3Rc-13">
          <mxGeometry y="60" width="140" height="30" as="geometry" />
        </mxCell>
        <mxCell id="ZrU4YzZ6mLLpQFoTN3Rc-21" value="string | description" style="text;strokeColor=none;fillColor=none;align=left;verticalAlign=middle;spacingLeft=4;spacingRight=4;overflow=hidden;points=[[0,0.5],[1,0.5]];portConstraint=eastwest;rotatable=0;whiteSpace=wrap;html=1;" vertex="1" parent="ZrU4YzZ6mLLpQFoTN3Rc-13">
          <mxGeometry y="90" width="140" height="30" as="geometry" />
        </mxCell>
        <mxCell id="ZrU4YzZ6mLLpQFoTN3Rc-22" value="float | baseprice" style="text;strokeColor=none;fillColor=none;align=left;verticalAlign=middle;spacingLeft=4;spacingRight=4;overflow=hidden;points=[[0,0.5],[1,0.5]];portConstraint=eastwest;rotatable=0;whiteSpace=wrap;html=1;" vertex="1" parent="ZrU4YzZ6mLLpQFoTN3Rc-13">
          <mxGeometry y="120" width="140" height="30" as="geometry" />
        </mxCell>
        <mxCell id="ZrU4YzZ6mLLpQFoTN3Rc-31" value="datetime | created_at" style="text;strokeColor=none;fillColor=none;align=left;verticalAlign=middle;spacingLeft=4;spacingRight=4;overflow=hidden;points=[[0,0.5],[1,0.5]];portConstraint=eastwest;rotatable=0;whiteSpace=wrap;html=1;" vertex="1" parent="ZrU4YzZ6mLLpQFoTN3Rc-13">
          <mxGeometry y="150" width="140" height="30" as="geometry" />
        </mxCell>
        <mxCell id="ZrU4YzZ6mLLpQFoTN3Rc-30" value="datetime | updated_at" style="text;strokeColor=none;fillColor=none;align=left;verticalAlign=middle;spacingLeft=4;spacingRight=4;overflow=hidden;points=[[0,0.5],[1,0.5]];portConstraint=eastwest;rotatable=0;whiteSpace=wrap;html=1;" vertex="1" parent="ZrU4YzZ6mLLpQFoTN3Rc-13">
          <mxGeometry y="180" width="140" height="30" as="geometry" />
        </mxCell>
        <mxCell id="ZrU4YzZ6mLLpQFoTN3Rc-24" value="ProductVariant_Table" style="swimlane;fontStyle=0;childLayout=stackLayout;horizontal=1;startSize=30;horizontalStack=0;resizeParent=1;resizeParentMax=0;resizeLast=0;collapsible=1;marginBottom=0;whiteSpace=wrap;html=1;" vertex="1" parent="1">
          <mxGeometry x="355" y="640" width="140" height="240" as="geometry">
            <mxRectangle x="50" y="120" width="70" height="30" as="alternateBounds" />
          </mxGeometry>
        </mxCell>
        <mxCell id="ZrU4YzZ6mLLpQFoTN3Rc-25" value="int | variant_id&lt;span style=&quot;white-space: pre;&quot;&gt;&#x9;&lt;/span&gt;&lt;span style=&quot;white-space: pre;&quot;&gt;&#x9;&lt;/span&gt;PK" style="text;strokeColor=none;fillColor=none;align=left;verticalAlign=middle;spacingLeft=4;spacingRight=4;overflow=hidden;points=[[0,0.5],[1,0.5]];portConstraint=eastwest;rotatable=0;whiteSpace=wrap;html=1;" vertex="1" parent="ZrU4YzZ6mLLpQFoTN3Rc-24">
          <mxGeometry y="30" width="140" height="30" as="geometry" />
        </mxCell>
        <mxCell id="ZrU4YzZ6mLLpQFoTN3Rc-29" value="int | product_id&lt;span style=&quot;white-space: pre;&quot;&gt;&#x9;&lt;/span&gt;FK" style="text;strokeColor=none;fillColor=none;align=left;verticalAlign=middle;spacingLeft=4;spacingRight=4;overflow=hidden;points=[[0,0.5],[1,0.5]];portConstraint=eastwest;rotatable=0;whiteSpace=wrap;html=1;" vertex="1" parent="ZrU4YzZ6mLLpQFoTN3Rc-24">
          <mxGeometry y="60" width="140" height="30" as="geometry" />
        </mxCell>
        <mxCell id="ZrU4YzZ6mLLpQFoTN3Rc-26" value="string | size" style="text;strokeColor=none;fillColor=none;align=left;verticalAlign=middle;spacingLeft=4;spacingRight=4;overflow=hidden;points=[[0,0.5],[1,0.5]];portConstraint=eastwest;rotatable=0;whiteSpace=wrap;html=1;" vertex="1" parent="ZrU4YzZ6mLLpQFoTN3Rc-24">
          <mxGeometry y="90" width="140" height="30" as="geometry" />
        </mxCell>
        <mxCell id="ZrU4YzZ6mLLpQFoTN3Rc-27" value="string | color" style="text;strokeColor=none;fillColor=none;align=left;verticalAlign=middle;spacingLeft=4;spacingRight=4;overflow=hidden;points=[[0,0.5],[1,0.5]];portConstraint=eastwest;rotatable=0;whiteSpace=wrap;html=1;" vertex="1" parent="ZrU4YzZ6mLLpQFoTN3Rc-24">
          <mxGeometry y="120" width="140" height="30" as="geometry" />
        </mxCell>
        <mxCell id="ZrU4YzZ6mLLpQFoTN3Rc-28" value="float | price" style="text;strokeColor=none;fillColor=none;align=left;verticalAlign=middle;spacingLeft=4;spacingRight=4;overflow=hidden;points=[[0,0.5],[1,0.5]];portConstraint=eastwest;rotatable=0;whiteSpace=wrap;html=1;" vertex="1" parent="ZrU4YzZ6mLLpQFoTN3Rc-24">
          <mxGeometry y="150" width="140" height="30" as="geometry" />
        </mxCell>
        <mxCell id="ZrU4YzZ6mLLpQFoTN3Rc-33" value="datetime | created_at" style="text;strokeColor=none;fillColor=none;align=left;verticalAlign=middle;spacingLeft=4;spacingRight=4;overflow=hidden;points=[[0,0.5],[1,0.5]];portConstraint=eastwest;rotatable=0;whiteSpace=wrap;html=1;" vertex="1" parent="ZrU4YzZ6mLLpQFoTN3Rc-24">
          <mxGeometry y="180" width="140" height="30" as="geometry" />
        </mxCell>
        <mxCell id="ZrU4YzZ6mLLpQFoTN3Rc-32" value="datetime | updated_at" style="text;strokeColor=none;fillColor=none;align=left;verticalAlign=middle;spacingLeft=4;spacingRight=4;overflow=hidden;points=[[0,0.5],[1,0.5]];portConstraint=eastwest;rotatable=0;whiteSpace=wrap;html=1;" vertex="1" parent="ZrU4YzZ6mLLpQFoTN3Rc-24">
          <mxGeometry y="210" width="140" height="30" as="geometry" />
        </mxCell>
        <mxCell id="ZrU4YzZ6mLLpQFoTN3Rc-34" value="Order_Table" style="swimlane;fontStyle=0;childLayout=stackLayout;horizontal=1;startSize=30;horizontalStack=0;resizeParent=1;resizeParentMax=0;resizeLast=0;collapsible=1;marginBottom=0;whiteSpace=wrap;html=1;" vertex="1" parent="1">
          <mxGeometry x="355" y="230" width="140" height="210" as="geometry">
            <mxRectangle x="50" y="120" width="70" height="30" as="alternateBounds" />
          </mxGeometry>
        </mxCell>
        <mxCell id="ZrU4YzZ6mLLpQFoTN3Rc-35" value="int | order_id&lt;span style=&quot;white-space: pre;&quot;&gt;&#x9;&lt;/span&gt;&lt;span style=&quot;white-space: pre;&quot;&gt;&#x9;&lt;/span&gt;PK" style="text;strokeColor=none;fillColor=none;align=left;verticalAlign=middle;spacingLeft=4;spacingRight=4;overflow=hidden;points=[[0,0.5],[1,0.5]];portConstraint=eastwest;rotatable=0;whiteSpace=wrap;html=1;" vertex="1" parent="ZrU4YzZ6mLLpQFoTN3Rc-34">
          <mxGeometry y="30" width="140" height="30" as="geometry" />
        </mxCell>
        <mxCell id="ZrU4YzZ6mLLpQFoTN3Rc-36" value="int | user_id&lt;span style=&quot;white-space: pre;&quot;&gt;&#x9;&lt;/span&gt;&lt;span style=&quot;white-space: pre;&quot;&gt;&#x9;&lt;/span&gt;FK" style="text;strokeColor=none;fillColor=none;align=left;verticalAlign=middle;spacingLeft=4;spacingRight=4;overflow=hidden;points=[[0,0.5],[1,0.5]];portConstraint=eastwest;rotatable=0;whiteSpace=wrap;html=1;" vertex="1" parent="ZrU4YzZ6mLLpQFoTN3Rc-34">
          <mxGeometry y="60" width="140" height="30" as="geometry" />
        </mxCell>
        <mxCell id="ZrU4YzZ6mLLpQFoTN3Rc-37" value="float | total_price" style="text;strokeColor=none;fillColor=none;align=left;verticalAlign=middle;spacingLeft=4;spacingRight=4;overflow=hidden;points=[[0,0.5],[1,0.5]];portConstraint=eastwest;rotatable=0;whiteSpace=wrap;html=1;" vertex="1" parent="ZrU4YzZ6mLLpQFoTN3Rc-34">
          <mxGeometry y="90" width="140" height="30" as="geometry" />
        </mxCell>
        <mxCell id="ZrU4YzZ6mLLpQFoTN3Rc-41" value="string | status" style="text;strokeColor=none;fillColor=none;align=left;verticalAlign=middle;spacingLeft=4;spacingRight=4;overflow=hidden;points=[[0,0.5],[1,0.5]];portConstraint=eastwest;rotatable=0;whiteSpace=wrap;html=1;" vertex="1" parent="ZrU4YzZ6mLLpQFoTN3Rc-34">
          <mxGeometry y="120" width="140" height="30" as="geometry" />
        </mxCell>
        <mxCell id="ZrU4YzZ6mLLpQFoTN3Rc-44" value="datetime | created_at" style="text;strokeColor=none;fillColor=none;align=left;verticalAlign=middle;spacingLeft=4;spacingRight=4;overflow=hidden;points=[[0,0.5],[1,0.5]];portConstraint=eastwest;rotatable=0;whiteSpace=wrap;html=1;" vertex="1" parent="ZrU4YzZ6mLLpQFoTN3Rc-34">
          <mxGeometry y="150" width="140" height="30" as="geometry" />
        </mxCell>
        <mxCell id="ZrU4YzZ6mLLpQFoTN3Rc-43" value="datetime | updated_at" style="text;strokeColor=none;fillColor=none;align=left;verticalAlign=middle;spacingLeft=4;spacingRight=4;overflow=hidden;points=[[0,0.5],[1,0.5]];portConstraint=eastwest;rotatable=0;whiteSpace=wrap;html=1;" vertex="1" parent="ZrU4YzZ6mLLpQFoTN3Rc-34">
          <mxGeometry y="180" width="140" height="30" as="geometry" />
        </mxCell>
        <mxCell id="ZrU4YzZ6mLLpQFoTN3Rc-45" value="OrderItem_Table" style="swimlane;fontStyle=0;childLayout=stackLayout;horizontal=1;startSize=30;horizontalStack=0;resizeParent=1;resizeParentMax=0;resizeLast=0;collapsible=1;marginBottom=0;whiteSpace=wrap;html=1;" vertex="1" parent="1">
          <mxGeometry x="570" y="240" width="170" height="240" as="geometry">
            <mxRectangle x="50" y="120" width="70" height="30" as="alternateBounds" />
          </mxGeometry>
        </mxCell>
        <mxCell id="ZrU4YzZ6mLLpQFoTN3Rc-46" value="int | order_item_id&lt;span style=&quot;white-space: pre;&quot;&gt;&#x9;&lt;/span&gt;&lt;span style=&quot;white-space: pre;&quot;&gt;&#x9;&lt;/span&gt;PK" style="text;strokeColor=none;fillColor=none;align=left;verticalAlign=middle;spacingLeft=4;spacingRight=4;overflow=hidden;points=[[0,0.5],[1,0.5]];portConstraint=eastwest;rotatable=0;whiteSpace=wrap;html=1;" vertex="1" parent="ZrU4YzZ6mLLpQFoTN3Rc-45">
          <mxGeometry y="30" width="170" height="30" as="geometry" />
        </mxCell>
        <mxCell id="ZrU4YzZ6mLLpQFoTN3Rc-47" value="int | order_id&lt;span style=&quot;white-space: pre;&quot;&gt;&#x9;&lt;/span&gt;&lt;span style=&quot;white-space: pre;&quot;&gt;&#x9;&lt;span style=&quot;white-space: pre;&quot;&gt;&#x9;&lt;/span&gt;&lt;/span&gt;FK" style="text;strokeColor=none;fillColor=none;align=left;verticalAlign=middle;spacingLeft=4;spacingRight=4;overflow=hidden;points=[[0,0.5],[1,0.5]];portConstraint=eastwest;rotatable=0;whiteSpace=wrap;html=1;" vertex="1" parent="ZrU4YzZ6mLLpQFoTN3Rc-45">
          <mxGeometry y="60" width="170" height="30" as="geometry" />
        </mxCell>
        <mxCell id="ZrU4YzZ6mLLpQFoTN3Rc-53" value="int | variant_id&lt;span style=&quot;white-space: pre;&quot;&gt;&#x9;&lt;/span&gt;&lt;span style=&quot;white-space: pre;&quot;&gt;&#x9;&lt;span style=&quot;white-space: pre;&quot;&gt;&#x9;&lt;/span&gt;&lt;/span&gt;FK" style="text;strokeColor=none;fillColor=none;align=left;verticalAlign=middle;spacingLeft=4;spacingRight=4;overflow=hidden;points=[[0,0.5],[1,0.5]];portConstraint=eastwest;rotatable=0;whiteSpace=wrap;html=1;" vertex="1" parent="ZrU4YzZ6mLLpQFoTN3Rc-45">
          <mxGeometry y="90" width="170" height="30" as="geometry" />
        </mxCell>
        <mxCell id="ZrU4YzZ6mLLpQFoTN3Rc-52" value="int | quantity" style="text;strokeColor=none;fillColor=none;align=left;verticalAlign=middle;spacingLeft=4;spacingRight=4;overflow=hidden;points=[[0,0.5],[1,0.5]];portConstraint=eastwest;rotatable=0;whiteSpace=wrap;html=1;" vertex="1" parent="ZrU4YzZ6mLLpQFoTN3Rc-45">
          <mxGeometry y="120" width="170" height="30" as="geometry" />
        </mxCell>
        <mxCell id="ZrU4YzZ6mLLpQFoTN3Rc-48" value="float | price_at_purchase" style="text;strokeColor=none;fillColor=none;align=left;verticalAlign=middle;spacingLeft=4;spacingRight=4;overflow=hidden;points=[[0,0.5],[1,0.5]];portConstraint=eastwest;rotatable=0;whiteSpace=wrap;html=1;" vertex="1" parent="ZrU4YzZ6mLLpQFoTN3Rc-45">
          <mxGeometry y="150" width="170" height="30" as="geometry" />
        </mxCell>
        <mxCell id="ZrU4YzZ6mLLpQFoTN3Rc-50" value="datetime | created_at" style="text;strokeColor=none;fillColor=none;align=left;verticalAlign=middle;spacingLeft=4;spacingRight=4;overflow=hidden;points=[[0,0.5],[1,0.5]];portConstraint=eastwest;rotatable=0;whiteSpace=wrap;html=1;" vertex="1" parent="ZrU4YzZ6mLLpQFoTN3Rc-45">
          <mxGeometry y="180" width="170" height="30" as="geometry" />
        </mxCell>
        <mxCell id="ZrU4YzZ6mLLpQFoTN3Rc-51" value="datetime | updated_at" style="text;strokeColor=none;fillColor=none;align=left;verticalAlign=middle;spacingLeft=4;spacingRight=4;overflow=hidden;points=[[0,0.5],[1,0.5]];portConstraint=eastwest;rotatable=0;whiteSpace=wrap;html=1;" vertex="1" parent="ZrU4YzZ6mLLpQFoTN3Rc-45">
          <mxGeometry y="210" width="170" height="30" as="geometry" />
        </mxCell>
        <mxCell id="ZrU4YzZ6mLLpQFoTN3Rc-54" value="Payment_Table" style="swimlane;fontStyle=0;childLayout=stackLayout;horizontal=1;startSize=30;horizontalStack=0;resizeParent=1;resizeParentMax=0;resizeLast=0;collapsible=1;marginBottom=0;whiteSpace=wrap;html=1;" vertex="1" parent="1">
          <mxGeometry x="420" y="-40" width="190" height="210" as="geometry">
            <mxRectangle x="50" y="120" width="70" height="30" as="alternateBounds" />
          </mxGeometry>
        </mxCell>
        <mxCell id="ZrU4YzZ6mLLpQFoTN3Rc-55" value="int | payment_id&lt;span style=&quot;white-space: pre;&quot;&gt;&#x9;&lt;/span&gt;&lt;span style=&quot;white-space: pre;&quot;&gt;&#x9;&lt;/span&gt;PK" style="text;strokeColor=none;fillColor=none;align=left;verticalAlign=middle;spacingLeft=4;spacingRight=4;overflow=hidden;points=[[0,0.5],[1,0.5]];portConstraint=eastwest;rotatable=0;whiteSpace=wrap;html=1;" vertex="1" parent="ZrU4YzZ6mLLpQFoTN3Rc-54">
          <mxGeometry y="30" width="190" height="30" as="geometry" />
        </mxCell>
        <mxCell id="ZrU4YzZ6mLLpQFoTN3Rc-56" value="int | order_id&lt;span style=&quot;white-space: pre;&quot;&gt;&#x9;&lt;span style=&quot;white-space: pre;&quot;&gt;&#x9;&lt;/span&gt;&lt;/span&gt;&lt;span style=&quot;white-space: pre;&quot;&gt;&#x9;&lt;/span&gt;FK" style="text;strokeColor=none;fillColor=none;align=left;verticalAlign=middle;spacingLeft=4;spacingRight=4;overflow=hidden;points=[[0,0.5],[1,0.5]];portConstraint=eastwest;rotatable=0;whiteSpace=wrap;html=1;" vertex="1" parent="ZrU4YzZ6mLLpQFoTN3Rc-54">
          <mxGeometry y="60" width="190" height="30" as="geometry" />
        </mxCell>
        <mxCell id="ZrU4YzZ6mLLpQFoTN3Rc-58" value="string | status" style="text;strokeColor=none;fillColor=none;align=left;verticalAlign=middle;spacingLeft=4;spacingRight=4;overflow=hidden;points=[[0,0.5],[1,0.5]];portConstraint=eastwest;rotatable=0;whiteSpace=wrap;html=1;" vertex="1" parent="ZrU4YzZ6mLLpQFoTN3Rc-54">
          <mxGeometry y="90" width="190" height="30" as="geometry" />
        </mxCell>
        <mxCell id="ZrU4YzZ6mLLpQFoTN3Rc-57" value="float | amount" style="text;strokeColor=none;fillColor=none;align=left;verticalAlign=middle;spacingLeft=4;spacingRight=4;overflow=hidden;points=[[0,0.5],[1,0.5]];portConstraint=eastwest;rotatable=0;whiteSpace=wrap;html=1;" vertex="1" parent="ZrU4YzZ6mLLpQFoTN3Rc-54">
          <mxGeometry y="120" width="190" height="30" as="geometry" />
        </mxCell>
        <mxCell id="ZrU4YzZ6mLLpQFoTN3Rc-59" value="datetime | created_at" style="text;strokeColor=none;fillColor=none;align=left;verticalAlign=middle;spacingLeft=4;spacingRight=4;overflow=hidden;points=[[0,0.5],[1,0.5]];portConstraint=eastwest;rotatable=0;whiteSpace=wrap;html=1;" vertex="1" parent="ZrU4YzZ6mLLpQFoTN3Rc-54">
          <mxGeometry y="150" width="190" height="30" as="geometry" />
        </mxCell>
        <mxCell id="ZrU4YzZ6mLLpQFoTN3Rc-60" value="datetime | updated_at" style="text;strokeColor=none;fillColor=none;align=left;verticalAlign=middle;spacingLeft=4;spacingRight=4;overflow=hidden;points=[[0,0.5],[1,0.5]];portConstraint=eastwest;rotatable=0;whiteSpace=wrap;html=1;" vertex="1" parent="ZrU4YzZ6mLLpQFoTN3Rc-54">
          <mxGeometry y="180" width="190" height="30" as="geometry" />
        </mxCell>
        <mxCell id="ZrU4YzZ6mLLpQFoTN3Rc-65" value="" style="edgeStyle=orthogonalEdgeStyle;fontSize=12;html=1;endArrow=ERzeroToMany;startArrow=ERmandOne;rounded=0;exitX=1;exitY=0.5;exitDx=0;exitDy=0;entryX=0;entryY=0.5;entryDx=0;entryDy=0;" edge="1" parent="1" source="ZrU4YzZ6mLLpQFoTN3Rc-2" target="ZrU4YzZ6mLLpQFoTN3Rc-36">
          <mxGeometry width="100" height="100" relative="1" as="geometry">
            <mxPoint x="250" y="500" as="sourcePoint" />
            <mxPoint x="350" y="400" as="targetPoint" />
          </mxGeometry>
        </mxCell>
        <mxCell id="ZrU4YzZ6mLLpQFoTN3Rc-68" value="places" style="edgeLabel;html=1;align=center;verticalAlign=middle;resizable=0;points=[];" vertex="1" connectable="0" parent="ZrU4YzZ6mLLpQFoTN3Rc-65">
          <mxGeometry x="0.111" y="-2" relative="1" as="geometry">
            <mxPoint y="-10" as="offset" />
          </mxGeometry>
        </mxCell>
        <mxCell id="ZrU4YzZ6mLLpQFoTN3Rc-67" value="" style="edgeStyle=orthogonalEdgeStyle;fontSize=12;html=1;endArrow=ERoneToMany;startArrow=ERmandOne;rounded=0;exitX=1;exitY=0.5;exitDx=0;exitDy=0;entryX=0;entryY=0.5;entryDx=0;entryDy=0;" edge="1" parent="1" source="ZrU4YzZ6mLLpQFoTN3Rc-35" target="ZrU4YzZ6mLLpQFoTN3Rc-47">
          <mxGeometry width="100" height="100" relative="1" as="geometry">
            <mxPoint x="450" y="540" as="sourcePoint" />
            <mxPoint x="550" y="440" as="targetPoint" />
          </mxGeometry>
        </mxCell>
        <mxCell id="ZrU4YzZ6mLLpQFoTN3Rc-69" value="contains" style="edgeLabel;html=1;align=center;verticalAlign=middle;resizable=0;points=[];" vertex="1" connectable="0" parent="ZrU4YzZ6mLLpQFoTN3Rc-67">
          <mxGeometry x="-0.0425" y="1" relative="1" as="geometry">
            <mxPoint as="offset" />
          </mxGeometry>
        </mxCell>
        <mxCell id="ZrU4YzZ6mLLpQFoTN3Rc-70" value="" style="edgeStyle=orthogonalEdgeStyle;fontSize=12;html=1;endArrow=ERoneToMany;startArrow=ERmandOne;rounded=0;exitX=1;exitY=0.5;exitDx=0;exitDy=0;entryX=0;entryY=0.5;entryDx=0;entryDy=0;" edge="1" parent="1" source="ZrU4YzZ6mLLpQFoTN3Rc-14" target="ZrU4YzZ6mLLpQFoTN3Rc-29">
          <mxGeometry width="100" height="100" relative="1" as="geometry">
            <mxPoint x="387.24" y="530" as="sourcePoint" />
            <mxPoint x="462.24" y="570" as="targetPoint" />
          </mxGeometry>
        </mxCell>
        <mxCell id="ZrU4YzZ6mLLpQFoTN3Rc-71" value="has" style="edgeLabel;html=1;align=center;verticalAlign=middle;resizable=0;points=[];" vertex="1" connectable="0" parent="ZrU4YzZ6mLLpQFoTN3Rc-70">
          <mxGeometry x="-0.0425" y="1" relative="1" as="geometry">
            <mxPoint as="offset" />
          </mxGeometry>
        </mxCell>
        <mxCell id="ZrU4YzZ6mLLpQFoTN3Rc-73" value="Inventory_Table" style="swimlane;fontStyle=0;childLayout=stackLayout;horizontal=1;startSize=30;horizontalStack=0;resizeParent=1;resizeParentMax=0;resizeLast=0;collapsible=1;marginBottom=0;whiteSpace=wrap;html=1;" vertex="1" parent="1">
          <mxGeometry x="610" y="700" width="180" height="150" as="geometry">
            <mxRectangle x="50" y="120" width="70" height="30" as="alternateBounds" />
          </mxGeometry>
        </mxCell>
        <mxCell id="ZrU4YzZ6mLLpQFoTN3Rc-74" value="int | inventory_id&lt;span style=&quot;white-space: pre;&quot;&gt;&#x9;&lt;/span&gt;&lt;span style=&quot;white-space: pre;&quot;&gt;&#x9;&lt;/span&gt;PK" style="text;strokeColor=none;fillColor=none;align=left;verticalAlign=middle;spacingLeft=4;spacingRight=4;overflow=hidden;points=[[0,0.5],[1,0.5]];portConstraint=eastwest;rotatable=0;whiteSpace=wrap;html=1;" vertex="1" parent="ZrU4YzZ6mLLpQFoTN3Rc-73">
          <mxGeometry y="30" width="180" height="30" as="geometry" />
        </mxCell>
        <mxCell id="ZrU4YzZ6mLLpQFoTN3Rc-75" value="int | variant_id&lt;span style=&quot;white-space: pre;&quot;&gt;&#x9;&lt;/span&gt;&lt;span style=&quot;white-space: pre;&quot;&gt;&#x9;&lt;/span&gt;&lt;span style=&quot;white-space: pre;&quot;&gt;&#x9;&lt;/span&gt;FK" style="text;strokeColor=none;fillColor=none;align=left;verticalAlign=middle;spacingLeft=4;spacingRight=4;overflow=hidden;points=[[0,0.5],[1,0.5]];portConstraint=eastwest;rotatable=0;whiteSpace=wrap;html=1;" vertex="1" parent="ZrU4YzZ6mLLpQFoTN3Rc-73">
          <mxGeometry y="60" width="180" height="30" as="geometry" />
        </mxCell>
        <mxCell id="ZrU4YzZ6mLLpQFoTN3Rc-76" value="int | stock_quantity" style="text;strokeColor=none;fillColor=none;align=left;verticalAlign=middle;spacingLeft=4;spacingRight=4;overflow=hidden;points=[[0,0.5],[1,0.5]];portConstraint=eastwest;rotatable=0;whiteSpace=wrap;html=1;" vertex="1" parent="ZrU4YzZ6mLLpQFoTN3Rc-73">
          <mxGeometry y="90" width="180" height="30" as="geometry" />
        </mxCell>
        <mxCell id="ZrU4YzZ6mLLpQFoTN3Rc-80" value="datetime | updated_at" style="text;strokeColor=none;fillColor=none;align=left;verticalAlign=middle;spacingLeft=4;spacingRight=4;overflow=hidden;points=[[0,0.5],[1,0.5]];portConstraint=eastwest;rotatable=0;whiteSpace=wrap;html=1;" vertex="1" parent="ZrU4YzZ6mLLpQFoTN3Rc-73">
          <mxGeometry y="120" width="180" height="30" as="geometry" />
        </mxCell>
        <mxCell id="ZrU4YzZ6mLLpQFoTN3Rc-82" value="" style="edgeStyle=orthogonalEdgeStyle;fontSize=12;html=1;endArrow=ERmandOne;startArrow=ERmandOne;rounded=0;exitX=1;exitY=0.5;exitDx=0;exitDy=0;entryX=0;entryY=0.5;entryDx=0;entryDy=0;" edge="1" parent="1" source="ZrU4YzZ6mLLpQFoTN3Rc-25" target="ZrU4YzZ6mLLpQFoTN3Rc-75">
          <mxGeometry width="100" height="100" relative="1" as="geometry">
            <mxPoint x="510" y="700" as="sourcePoint" />
            <mxPoint x="610" y="600" as="targetPoint" />
          </mxGeometry>
        </mxCell>
        <mxCell id="ZrU4YzZ6mLLpQFoTN3Rc-83" value="has" style="edgeLabel;html=1;align=center;verticalAlign=middle;resizable=0;points=[];" vertex="1" connectable="0" parent="ZrU4YzZ6mLLpQFoTN3Rc-82">
          <mxGeometry x="-0.0312" y="-1" relative="1" as="geometry">
            <mxPoint as="offset" />
          </mxGeometry>
        </mxCell>
        <mxCell id="ZrU4YzZ6mLLpQFoTN3Rc-84" value="" style="edgeStyle=orthogonalEdgeStyle;fontSize=12;html=1;endArrow=ERmandOne;startArrow=ERmandOne;rounded=0;entryX=0;entryY=0.5;entryDx=0;entryDy=0;exitX=0;exitY=0.5;exitDx=0;exitDy=0;" edge="1" parent="1" source="ZrU4YzZ6mLLpQFoTN3Rc-25" target="ZrU4YzZ6mLLpQFoTN3Rc-53">
          <mxGeometry width="100" height="100" relative="1" as="geometry">
            <mxPoint x="470" y="590" as="sourcePoint" />
            <mxPoint x="885" y="370" as="targetPoint" />
            <Array as="points">
              <mxPoint x="330" y="685" />
              <mxPoint x="330" y="530" />
              <mxPoint x="530" y="530" />
              <mxPoint x="530" y="345" />
            </Array>
          </mxGeometry>
        </mxCell>
        <mxCell id="ZrU4YzZ6mLLpQFoTN3Rc-85" value="is" style="edgeLabel;html=1;align=center;verticalAlign=middle;resizable=0;points=[];" vertex="1" connectable="0" parent="ZrU4YzZ6mLLpQFoTN3Rc-84">
          <mxGeometry x="-0.0312" y="-1" relative="1" as="geometry">
            <mxPoint as="offset" />
          </mxGeometry>
        </mxCell>
        <mxCell id="ZrU4YzZ6mLLpQFoTN3Rc-86" value="" style="edgeStyle=orthogonalEdgeStyle;fontSize=12;html=1;endArrow=ERmandOne;startArrow=ERmandOne;rounded=0;exitX=0;exitY=0.5;exitDx=0;exitDy=0;entryX=0;entryY=0.5;entryDx=0;entryDy=0;" edge="1" parent="1" source="ZrU4YzZ6mLLpQFoTN3Rc-35" target="ZrU4YzZ6mLLpQFoTN3Rc-56">
          <mxGeometry width="100" height="100" relative="1" as="geometry">
            <mxPoint x="105" y="190" as="sourcePoint" />
            <mxPoint x="320" y="-20" as="targetPoint" />
            <Array as="points">
              <mxPoint x="330" y="275" />
              <mxPoint x="330" y="35" />
            </Array>
          </mxGeometry>
        </mxCell>
        <mxCell id="ZrU4YzZ6mLLpQFoTN3Rc-87" value="has" style="edgeLabel;html=1;align=center;verticalAlign=middle;resizable=0;points=[];" vertex="1" connectable="0" parent="ZrU4YzZ6mLLpQFoTN3Rc-86">
          <mxGeometry x="-0.0312" y="-1" relative="1" as="geometry">
            <mxPoint as="offset" />
          </mxGeometry>
        </mxCell>
      </root>
    </mxGraphModel>
  </diagram>
</mxfile>
